HIERARCHY
ROOT Hips
{
	OFFSET 0.000000 8.830580 0.000000
	CHANNELS 6 Xposition Yposition Zposition Zrotation Yrotation Xrotation 
	JOINT Spine
	{
		OFFSET 0.000000 0.010000 0.000000
		CHANNELS 3 Zrotation Yrotation Xrotation
		JOINT Spine1
		{
			OFFSET 0.000000 2.459130 0.000000
			CHANNELS 3 Zrotation Yrotation Xrotation
			JOINT Neck
			{
				OFFSET 0.000000 2.484630 0.000000
				CHANNELS 3 Zrotation Yrotation Xrotation
				JOINT Head_virtual
				{
					OFFSET 0.000000 0.000000 0.000000
					CHANNELS 3 Zrotation Yrotation Xrotation
					JOINT Head
					{
						OFFSET 0.000000 0.927525 0.000000
						CHANNELS 3 Zrotation Yrotation Xrotation
						End Site
						{
							OFFSET 0.000000 0.000000 0.000000
						}
					}
				}
				JOINT LeftUpArm_virtual
				{
					OFFSET 0.000000 0.000000 0.000000
					CHANNELS 3 Zrotation Yrotation Xrotation
					JOINT LeftUpArm
					{
						OFFSET 1.248820 0.000000 0.000000
						CHANNELS 3 Zrotation Yrotation Xrotation
						JOINT LeftForeArm
						{
							OFFSET 2.597580 0.000000 0.000000
							CHANNELS 3 Zrotation Yrotation Xrotation
							JOINT LeftHand
							{
								OFFSET 2.455420 0.000000 0.000000
								CHANNELS 3 Zrotation Yrotation Xrotation
								End Site
								{
									OFFSET 0.000000 0.000000 0.000000
								}
							}
						}
					}
				}
				JOINT RightUpArm_virtual
				{
					OFFSET -0.000000 -0.000000 -0.000000
					CHANNELS 3 Zrotation Yrotation Xrotation
					JOINT RightUpArm
					{
						OFFSET -1.248820 -0.000000 -0.000000
						CHANNELS 3 Zrotation Yrotation Xrotation
						JOINT RightForeArm
						{
							OFFSET -2.597580 -0.000000 -0.000000
							CHANNELS 3 Zrotation Yrotation Xrotation
							JOINT RightHand
							{
								OFFSET -2.455420 -0.000000 -0.000000
								CHANNELS 3 Zrotation Yrotation Xrotation
								End Site
								{
									OFFSET 0.000000 0.000000 0.000000
								}
							}
						}
					}
				}
			}
		}
	}
	JOINT LeftUpLeg
	{
		OFFSET 1.271939 0.000000 0.000000
		CHANNELS 3 Zrotation Yrotation Xrotation
		JOINT LeftLowLeg
		{
			OFFSET 0.000000 -4.342910 0.000000
			CHANNELS 3 Zrotation Yrotation Xrotation
			JOINT LeftFoot
			{
				OFFSET 0.000000 -4.487670 0.000000
				CHANNELS 3 Zrotation Yrotation Xrotation
				JOINT LeftToeBase
				{
					OFFSET 0.000000 0.000000 1.515070
					CHANNELS 3 Zrotation Yrotation Xrotation
					End Site
					{
						OFFSET 0.000000 0.000000 0.000000
					}
				}
			}
		}
	}
	JOINT RightUpLeg
	{
		OFFSET -1.271939 0.000000 0.000000
		CHANNELS 3 Zrotation Yrotation Xrotation
		JOINT RightLowLeg
		{
			OFFSET 0.000000 -4.342910 0.000000
			CHANNELS 3 Zrotation Yrotation Xrotation
			JOINT RightFoot
			{
				OFFSET 0.000000 -4.487670 0.000000
				CHANNELS 3 Zrotation Yrotation Xrotation
				JOINT RightToeBase
				{
					OFFSET 0.000000 0.000000 1.515070
					CHANNELS 3 Zrotation Yrotation Xrotation
					End Site
					{
						OFFSET 0.000000 0.000000 0.000000
					}
				}
			}
		}
	}
}
MOTION
Frames: 7
Frame Time: 0.041667
-10.309842 9.160967 29.990918 -171.704103 -23.230925 -156.223192 1.308952 4.437799 56.514586 14.967880 2.277523 5.680412 0.000000 0.000000 0.000000 -15.113021 14.457456 -2.178279 14.494456 -10.770960 -115.211042 -22.721300 -15.131800 10.599300 18.528900 -24.562500 -58.411400 0.000000 -10.651500 0.000000 49.536900 9.231990 -9.585880 18.729401 24.647499 23.220001 -19.720800 41.756699 -48.415798 0.000000 43.197201 0.000000 -30.537001 -10.983800 14.201900 8.908007 10.241526 -45.284056 0.000000 0.000000 22.554701 -22.860041 -0.774246 6.962028 0.000000 0.000000 -34.604500 12.075428 -10.572897 -42.355112 0.000000 0.000000 22.494101 15.367714 -0.138213 9.765039 0.000000 0.000000 -42.254000 
-10.333383 9.163148 29.969131 -171.458097 -23.386659 -155.673312 1.146215 4.461284 57.061792 14.870566 2.210831 4.739866 0.000000 0.000000 0.000000 -15.231471 14.757859 -0.364740 14.951482 -10.287387 -116.341463 -21.945000 -16.522301 9.643230 17.973700 -24.019501 -57.776699 0.000000 -11.189400 0.000000 51.824600 9.719300 -11.147800 19.460501 25.278700 24.319000 -20.821699 41.218399 -49.331902 0.000000 43.387901 0.000000 -30.717300 -10.977100 14.068100 9.289355 9.832952 -45.977907 0.000000 0.000000 23.011700 -22.973093 -0.424794 6.459329 0.000000 0.000000 -34.609301 12.496073 -10.859600 -42.672255 0.000000 0.000000 22.189199 15.643438 0.333347 9.893319 0.000000 0.000000 -42.323700 
-10.354957 9.164284 29.951706 -171.312153 -23.323960 -155.287826 0.987087 4.531692 57.665364 14.313764 2.112033 4.051577 0.000000 0.000000 0.000000 -14.785329 14.840417 0.819905 14.919695 -9.752658 -116.988441 -20.941099 -18.024900 8.334640 17.613300 -23.639900 -56.180801 0.000000 -11.305700 0.000000 54.055099 9.821310 -11.242400 20.135401 25.944799 24.798004 -21.209999 40.798801 -49.848801 0.000000 43.708698 0.000000 -30.704800 -11.073200 13.928300 9.735205 9.310002 -46.346237 0.000000 0.000000 23.365801 -23.096450 0.124345 5.900284 0.000000 0.000000 -34.623301 12.634004 -10.851109 -42.900308 0.000000 0.000000 22.074499 15.818980 0.551903 9.956337 0.000000 0.000000 -42.367201 
-10.375353 9.163961 29.938599 -171.266380 -23.133338 -154.964851 0.808138 4.808800 58.455927 13.865490 2.063821 3.253403 0.000000 0.000000 0.000000 -14.428776 14.815634 1.328533 14.740680 -9.463045 -117.227588 -20.115299 -19.123699 7.215010 17.919701 -24.082001 -54.740101 0.000000 -10.726800 0.000000 55.933601 9.852790 -9.927980 20.509001 25.985901 25.148010 -22.072800 40.822102 -50.126801 0.000000 43.660000 0.000000 -31.468700 -11.277000 13.439600 9.856176 9.084481 -46.642047 0.000000 0.000000 23.715700 -23.181568 0.526986 5.401900 0.000000 0.000000 -34.543900 12.588185 -10.723374 -43.137185 0.000000 0.000000 22.122200 15.979180 0.695301 9.950700 0.000000 0.000000 -42.394300 
-10.397502 9.164617 29.919722 -171.236820 -23.001675 -154.499699 0.449441 5.278087 58.828187 14.214272 1.806578 2.690198 0.000000 0.000000 0.000000 -14.415919 14.603222 2.224637 14.597465 -9.359627 -117.850164 -19.868200 -20.008499 5.913410 18.183100 -24.750999 -53.836102 0.000000 -10.275200 0.000000 56.860401 10.268500 -9.415580 20.484100 26.206699 25.251007 -22.528099 41.129299 -50.488499 0.000000 43.566200 0.000000 -31.459801 -11.834000 12.899500 9.646534 9.263754 -47.066168 0.000000 0.000000 23.992300 -22.944415 0.596779 5.102327 0.000000 0.000000 -34.590099 12.642497 -10.735326 -43.437537 0.000000 0.000000 22.081301 16.121460 0.945885 9.946149 0.000000 0.000000 -42.458300 
-10.421763 9.166022 29.896525 -171.180004 -23.014825 -154.245453 0.219765 5.120508 59.347363 14.345835 1.568405 1.754448 0.000000 0.000000 0.000000 -15.709873 15.128068 4.916554 15.624209 -9.285537 -119.529292 -17.937799 -22.662300 -5.298690 10.309600 -24.852699 -43.109200 0.000000 -12.082900 0.000000 58.604401 10.890600 -8.988140 21.095100 27.143600 25.924011 -22.676701 41.062801 -50.399601 0.000000 43.128899 0.000000 -31.711599 -11.917300 12.123100 9.325272 9.610258 -47.259226 0.000000 0.000000 24.101601 -22.834302 0.282990 4.927560 0.000000 0.000000 -34.750799 12.784174 -11.002781 -43.481647 0.000000 0.000000 21.959600 16.272078 1.321048 9.956423 0.000000 0.000000 -42.557899 
-10.443756 9.166046 29.881275 -171.028991 -23.141052 -153.850821 -0.088359 5.192777 59.703587 14.647708 1.286400 0.904495 0.000000 0.000000 0.000000 -15.963609 15.230204 6.333580 15.491560 -9.129872 -120.004614 -13.923400 -22.353500 -22.199400 -2.948110 -25.886000 -29.777300 0.000000 -15.417400 0.000000 61.148998 10.916700 -7.746090 21.420000 27.767799 27.506012 -23.690300 40.755001 -51.762901 0.000000 42.877998 0.000000 -32.463600 -11.848600 11.852000 9.214232 9.754836 -47.799004 0.000000 0.000000 24.445999 -22.917791 0.081780 4.689505 0.000000 0.000000 -34.676300 13.120087 -11.313757 -43.826766 0.000000 0.000000 21.951500 16.345048 1.658753 10.037139 0.000000 0.000000 -42.738300 
